# xmcd
#
# Track frame offsets: 
#        182
#        12157
#        23922
#        36310
#        53567
#        64947
#        76032
#        85747
#        98112
#        109055
#        119832
#        130285
#        142762
#        156505
#
# Disc length: 2288 seconds
#
# Revision: 0
# Processed by: cddbd v1.4PL0 Copyright (c) Steve Scherf et al.
# Submitted via: ExactAudioCopy v0.90b3
#
DISCID=b308ee0e
DTITLE=John Lee Hooker - 28 Great Songs [CD 2)
DYEAR=1993
DGENRE=Blues
TTITLE0=I'm in the Mood
TTITLE1=Good Rockin' Mama
TTITLE2=Baby Lee
TTITLE3=Blues Before Sunrise
TTITLE4=Boogie Chillen
TTITLE5=Bottle up and Go
TTITLE6=Dusty Road
TTITLE7=Hobo Blues
TTITLE8=Little Wheel
TTITLE9=No Shoes
TTITLE10=Maudie
TTITLE11=Trouble Blues
TTITLE12=Turn over a new Leaf
TTITLE13=Tupelo
EXTD=
EXTT0=
EXTT1=
EXTT2=
EXTT3=
EXTT4=
EXTT5=
EXTT6=
EXTT7=
EXTT8=
EXTT9=
EXTT10=
EXTT11=
EXTT12=
EXTT13=
PLAYORDER=
